<mxfile host="app.diagrams.net" agent="Mozilla/5.0 (Macintosh; Intel Mac OS X 10_15_7) AppleWebKit/537.36 (KHTML, like Gecko) Chrome/126.0.0.0 Safari/537.36" version="24.7.14">
  <diagram name="Page-1" id="YNJIgYYOF31vNW3GRBjq">
    <mxGraphModel dx="1434" dy="786" grid="1" gridSize="10" guides="1" tooltips="1" connect="1" arrows="1" fold="1" page="1" pageScale="1" pageWidth="850" pageHeight="1100" math="0" shadow="0">
      <root>
        <mxCell id="0" />
        <mxCell id="1" parent="0" />
        <mxCell id="XzmBF0EzG8E6nJlxvi2m-1" value="ED Staff" style="shape=umlActor;verticalLabelPosition=bottom;verticalAlign=top;html=1;outlineConnect=0;" vertex="1" parent="1">
          <mxGeometry x="100" y="440" width="30" height="60" as="geometry" />
        </mxCell>
        <mxCell id="XzmBF0EzG8E6nJlxvi2m-11" value="ED Staff Usecase" style="shape=umlFrame;whiteSpace=wrap;html=1;pointerEvents=0;" vertex="1" parent="1">
          <mxGeometry x="50" y="140" width="1040" height="790" as="geometry" />
        </mxCell>
        <mxCell id="XzmBF0EzG8E6nJlxvi2m-12" value="" style="whiteSpace=wrap;html=1;aspect=fixed;fillColor=none;strokeColor=#A6A6A6;" vertex="1" parent="1">
          <mxGeometry x="195" y="215" width="605" height="605" as="geometry" />
        </mxCell>
        <mxCell id="XzmBF0EzG8E6nJlxvi2m-13" value="Login" style="ellipse;whiteSpace=wrap;html=1;" vertex="1" parent="1">
          <mxGeometry x="220" y="240" width="100" height="50" as="geometry" />
        </mxCell>
        <mxCell id="XzmBF0EzG8E6nJlxvi2m-16" value="Logout" style="ellipse;whiteSpace=wrap;html=1;" vertex="1" parent="1">
          <mxGeometry x="220" y="730" width="100" height="50" as="geometry" />
        </mxCell>
        <mxCell id="XzmBF0EzG8E6nJlxvi2m-18" value="View current ED Load" style="ellipse;whiteSpace=wrap;html=1;" vertex="1" parent="1">
          <mxGeometry x="320" y="310" width="100" height="50" as="geometry" />
        </mxCell>
        <mxCell id="XzmBF0EzG8E6nJlxvi2m-19" value="Update Patient Status" style="ellipse;whiteSpace=wrap;html=1;" vertex="1" parent="1">
          <mxGeometry x="325" y="380" width="100" height="50" as="geometry" />
        </mxCell>
        <mxCell id="XzmBF0EzG8E6nJlxvi2m-20" value="View Patient Record" style="ellipse;whiteSpace=wrap;html=1;" vertex="1" parent="1">
          <mxGeometry x="530" y="380" width="100" height="50" as="geometry" />
        </mxCell>
        <mxCell id="XzmBF0EzG8E6nJlxvi2m-21" value="&amp;lt;&amp;lt;includes&amp;gt;&amp;gt;" style="edgeStyle=none;html=1;startArrow=open;endArrow=none;startSize=12;verticalAlign=bottom;dashed=1;labelBackgroundColor=none;rounded=0;" edge="1" parent="1" source="XzmBF0EzG8E6nJlxvi2m-19">
          <mxGeometry x="0.1111" y="10" width="160" relative="1" as="geometry">
            <mxPoint x="440" y="404.5" as="sourcePoint" />
            <mxPoint x="530" y="404.5" as="targetPoint" />
            <mxPoint as="offset" />
          </mxGeometry>
        </mxCell>
        <mxCell id="XzmBF0EzG8E6nJlxvi2m-23" value="Check-in Patient" style="ellipse;whiteSpace=wrap;html=1;" vertex="1" parent="1">
          <mxGeometry x="320" y="560" width="100" height="50" as="geometry" />
        </mxCell>
        <mxCell id="XzmBF0EzG8E6nJlxvi2m-24" value="Register Patient" style="ellipse;whiteSpace=wrap;html=1;" vertex="1" parent="1">
          <mxGeometry x="525" y="560" width="100" height="50" as="geometry" />
        </mxCell>
        <mxCell id="XzmBF0EzG8E6nJlxvi2m-25" value="Verify Registration" style="ellipse;whiteSpace=wrap;html=1;" vertex="1" parent="1">
          <mxGeometry x="525" y="635" width="100" height="50" as="geometry" />
        </mxCell>
        <mxCell id="XzmBF0EzG8E6nJlxvi2m-26" value="&amp;lt;&amp;lt;includes&amp;gt;&amp;gt;" style="edgeStyle=none;html=1;startArrow=open;endArrow=none;startSize=12;verticalAlign=bottom;dashed=1;labelBackgroundColor=none;rounded=0;exitX=0.92;exitY=0.8;exitDx=0;exitDy=0;exitPerimeter=0;" edge="1" parent="1" source="XzmBF0EzG8E6nJlxvi2m-23">
          <mxGeometry x="0.1074" y="10" width="160" relative="1" as="geometry">
            <mxPoint x="415" y="609" as="sourcePoint" />
            <mxPoint x="525" y="650" as="targetPoint" />
            <mxPoint as="offset" />
          </mxGeometry>
        </mxCell>
        <mxCell id="XzmBF0EzG8E6nJlxvi2m-28" value="Add Patient Assessment" style="ellipse;whiteSpace=wrap;html=1;" vertex="1" parent="1">
          <mxGeometry x="320" y="460" width="100" height="50" as="geometry" />
        </mxCell>
        <mxCell id="XzmBF0EzG8E6nJlxvi2m-29" value="Update ED Patient Queue" style="ellipse;whiteSpace=wrap;html=1;" vertex="1" parent="1">
          <mxGeometry x="325" y="660" width="100" height="50" as="geometry" />
        </mxCell>
        <mxCell id="XzmBF0EzG8E6nJlxvi2m-30" value="&amp;lt;&amp;lt;extend&amp;gt;&amp;gt;" style="html=1;verticalAlign=bottom;labelBackgroundColor=none;endArrow=open;endFill=0;dashed=1;rounded=0;exitX=0.96;exitY=0.36;exitDx=0;exitDy=0;exitPerimeter=0;entryX=-0.02;entryY=0.38;entryDx=0;entryDy=0;entryPerimeter=0;" edge="1" parent="1" source="XzmBF0EzG8E6nJlxvi2m-23" target="XzmBF0EzG8E6nJlxvi2m-24">
          <mxGeometry width="160" relative="1" as="geometry">
            <mxPoint x="435" y="580" as="sourcePoint" />
            <mxPoint x="515" y="580" as="targetPoint" />
          </mxGeometry>
        </mxCell>
        <mxCell id="XzmBF0EzG8E6nJlxvi2m-36" value="&amp;lt;&amp;lt;includes&amp;gt;&amp;gt;" style="edgeStyle=none;html=1;startArrow=open;endArrow=none;startSize=12;verticalAlign=bottom;dashed=1;labelBackgroundColor=none;rounded=0;exitX=1;exitY=0.5;exitDx=0;exitDy=0;" edge="1" parent="1" source="XzmBF0EzG8E6nJlxvi2m-28">
          <mxGeometry x="0.1111" y="10" width="160" relative="1" as="geometry">
            <mxPoint x="435" y="415" as="sourcePoint" />
            <mxPoint x="540" y="414.5" as="targetPoint" />
            <mxPoint as="offset" />
            <Array as="points" />
          </mxGeometry>
        </mxCell>
      </root>
    </mxGraphModel>
  </diagram>
</mxfile>
